<svg xmlns="http://www.w3.org/2000/svg" viewBox="0 0 512 512"><defs><style>.cls-1{fill:#fff;stroke:#f5f1da;stroke-width:11px;}.cls-2{fill:#f5f1da;}.cls-3{fill:none;}</style></defs><g id="Layer_2" data-name="Layer 2"><g id="Layer_1-2" data-name="Layer 1"><path class="cls-1" d="M171,278.66V180.19h59.43v95.89c0,18.21,9.79,28.92,25.67,28.92s25.49-10.89,25.49-28.92V180.19H341v98.47c0,48.28-33.95,79.73-84.92,79.73S171,326.94,171,278.66Z"/><rect class="cls-2" x="190.71" y="391.58" width="130.58" height="11.23" rx="4.34"/><path class="cls-2" d="M127.42,117.59c0,3-.93,6-3.38,10.16L118.59,137h-8.52l5.88-9.82a12.52,12.52,0,0,1-2,.14c-5.9,0-10-4-10-9.65,0-6.47,4.77-10.92,11.69-10.92S127.42,111.15,127.42,117.59Zm-7.4,0a4.33,4.33,0,1,0-4.32,4.24A4.09,4.09,0,0,0,120,117.63Z"/><path class="cls-2" d="M152.08,130v7H130.14v-1.8c11.87-14,13.5-16.26,13.5-18.79a2.49,2.49,0,0,0-2.56-2.67,2.58,2.58,0,0,0-2.67,2.89v.57h-7.8v-.55c0-6,3.91-9.9,10.37-9.9,6.26,0,10.58,3.84,10.58,9.38,0,3.71-1.37,6.56-7.68,13.87Z"/><rect class="cls-3" width="512" height="512"/></g></g></svg>